<?xml version="1.0" encoding="utf-8"?>
<!-- Generator: Adobe Illustrator 19.0.0, SVG Export Plug-In . SVG Version: 6.00 Build 0)  -->
<svg version="1.1" id="Layer_1" xmlns="http://www.w3.org/2000/svg" xmlns:xlink="http://www.w3.org/1999/xlink" x="0px" y="0px"
	 viewBox="0 0 85.1 28" style="enable-background:new 0 0 85.1 28;" xml:space="preserve">
<style type="text/css">
	.st0{fill:url(#XMLID_18_);}
	.st1{fill:url(#XMLID_148_);}
	.st2{fill:url(#XMLID_149_);}
	.st3{fill:url(#XMLID_150_);}
	.st4{fill:url(#XMLID_151_);}
	.st5{fill:url(#XMLID_152_);}
	.st6{fill:url(#XMLID_153_);}
</style>
<g id="XMLID_16_">
	<radialGradient id="XMLID_18_" cx="50.8636" cy="2.3375" r="25.7746" gradientUnits="userSpaceOnUse">
		<stop  offset="3.228635e-03" style="stop-color:#00E915"/>
		<stop  offset="0.5942" style="stop-color:#007BFF"/>
	</radialGradient>
	<path id="XMLID_13_" class="st0" d="M44.5,8.5c-1.3-1.4-3-2.1-5.2-2.1c-2.1,0-3.8,0.7-5.1,2.1c-1.3,1.4-1.9,3.3-1.9,5.6
		c0,2.3,0.6,4.2,1.9,5.6c1.3,1.4,3,2.1,5.1,2.1c2.1,0,3.9-0.7,5.2-2.1c1.3-1.4,1.9-3.3,1.9-5.6C46.5,11.8,45.8,9.9,44.5,8.5z
		 M42.5,18.1c-0.7,0.8-1.7,1.3-3.1,1.3c-1.4,0-2.4-0.4-3.1-1.3c-0.7-0.8-1-2.2-1-4c0-1.7,0.4-3,1.1-3.9c0.7-0.9,1.7-1.3,3-1.3
		c1.3,0,2.3,0.4,3.1,1.3c0.7,0.9,1.1,2.2,1.1,3.9C43.5,16,43.2,17.3,42.5,18.1z"/>
	<radialGradient id="XMLID_148_" cx="50.8636" cy="2.3375" r="25.7746" gradientUnits="userSpaceOnUse">
		<stop  offset="3.228635e-03" style="stop-color:#00E915"/>
		<stop  offset="0.5942" style="stop-color:#007BFF"/>
	</radialGradient>
	<path id="XMLID_169_" class="st1" d="M49.5,22.9c0,0.9-0.2,1.5-0.5,1.9c-0.3,0.4-0.8,0.6-1.6,0.6c-0.2,0-0.7-0.1-1.3-0.2l-0.4-0.1
		v2.5l0.2,0.1c0.7,0.2,1.4,0.3,2,0.3c1.4,0,2.5-0.4,3.3-1.3c0.8-0.9,1.2-2.1,1.2-3.6V6.7h-2.9V22.9 M52.4,3.9V0.6h-2.9v3.2"/>
	<radialGradient id="XMLID_149_" cx="50.8636" cy="2.3375" r="25.7746" gradientUnits="userSpaceOnUse">
		<stop  offset="3.228635e-03" style="stop-color:#00E915"/>
		<stop  offset="0.5942" style="stop-color:#007BFF"/>
	</radialGradient>
	<path id="XMLID_175_" class="st2" d="M66.2,7v2.5h0.3l0.3-0.1c-1-2-2.8-3-5.1-3c-2,0-3.6,0.7-4.8,2.2C55.6,10,55,11.9,55,14.2
		c0,2.3,0.6,4.2,1.8,5.6c1.2,1.4,2.9,2.1,4.9,2.1c1.2,0,2.3-0.2,3.1-0.8c0.9-0.5,1.5-1.3,2-2.3l-0.3-0.1h-0.3v2.9h2.9v-15h-2.9V7
		 M66.8,7 M62.1,8.9c1.4,0,2.4,0.4,3.1,1.3c0.7,0.8,1,2.2,1,4c0,1.7-0.4,3-1.1,3.9c-0.7,0.9-1.7,1.3-3,1.3c-1.3,0-2.3-0.4-3.1-1.3
		c-0.7-0.9-1.1-2.1-1.1-3.9c0-1.7,0.4-3,1.1-3.9C59.8,9.4,60.8,8.9,62.1,8.9"/>
	<radialGradient id="XMLID_150_" cx="50.8636" cy="2.3375" r="25.7746" gradientUnits="userSpaceOnUse">
		<stop  offset="3.228635e-03" style="stop-color:#00E915"/>
		<stop  offset="0.5942" style="stop-color:#007BFF"/>
	</radialGradient>
	<path id="XMLID_7_" class="st3" d="M85.1,21.4v-9c0-1.9-0.4-3.4-1.4-4.5c-0.9-1-2.3-1.5-4.1-1.5c-2.3,0-4.1,1-5.1,2.8l0.3,0.1H75
		V0.1h-2.9v21.6H75v-8.5c0-1.3,0.4-2.3,1.1-3.1c0.8-0.8,1.7-1.2,3-1.2c1.1,0,1.8,0.3,2.3,0.9c0.5,0.6,0.8,1.4,0.8,2.7v9.2h2.9V21.4"
		/>
	<radialGradient id="XMLID_151_" cx="50.8636" cy="21.4133" r="22.466" gradientUnits="userSpaceOnUse">
		<stop  offset="3.228635e-03" style="stop-color:#00E915"/>
		<stop  offset="0.5942" style="stop-color:#007BFF"/>
	</radialGradient>
	<line id="XMLID_8_" class="st4" x1="84.5" y1="21.4" x2="84.8" y2="21.4"/>
	<radialGradient id="XMLID_152_" cx="50.8636" cy="2.3375" r="25.7746" gradientUnits="userSpaceOnUse">
		<stop  offset="3.228635e-03" style="stop-color:#00E915"/>
		<stop  offset="0.5942" style="stop-color:#007BFF"/>
	</radialGradient>
	<path id="XMLID_11_" class="st5" d="M28.2,8.5c-1.3-1.4-3-2.1-5.2-2.1c-2.1,0-3.8,0.7-5.1,2.1c-1.3,1.4-1.9,3.3-1.9,5.6
		c0,2.3,0.6,4.2,1.9,5.6c1.3,1.4,3,2.1,5.1,2.1c2.1,0,3.9-0.7,5.2-2.1c1.3-1.4,1.9-3.3,1.9-5.6C30.1,11.8,29.5,9.9,28.2,8.5z
		 M26.1,18.1c-0.7,0.8-1.7,1.3-3.1,1.3c-1.4,0-2.4-0.4-3.1-1.3c-0.7-0.8-1-2.2-1-4c0-1.7,0.4-3,1.1-3.9c0.7-0.9,1.7-1.3,3-1.3
		c1.3,0,2.3,0.4,3.1,1.3c0.7,0.9,1.1,2.2,1.1,3.9C27.2,16,26.8,17.3,26.1,18.1z"/>
	<radialGradient id="XMLID_153_" cx="50.8636" cy="2.3375" r="25.7746" gradientUnits="userSpaceOnUse">
		<stop  offset="3.228635e-03" style="stop-color:#00E915"/>
		<stop  offset="0.5942" style="stop-color:#007BFF"/>
	</radialGradient>
	<path id="XMLID_15_" class="st6" d="M13,21.4v-9c0-1.9-0.4-3.4-1.4-4.5c-0.9-1-2.3-1.5-4.1-1.5c-2.3,0-4.1,1-5.1,2.8l0.3,0.1h0.3
		V0.1H0v21.6h2.9v-8.5c0-1.3,0.4-2.3,1.1-3.1c0.8-0.8,1.7-1.2,3-1.2c1.1,0,1.8,0.3,2.3,0.9c0.5,0.6,0.8,1.4,0.8,2.7v9.2H13V21.4"/>
</g>
</svg>
